<?xml version="1.0" encoding="UTF-8" standalone="no"?>
<!-- Created with Inkscape (http://www.inkscape.org/) -->

<svg
   xmlns:dc="http://purl.org/dc/elements/1.1/"
   xmlns:cc="http://creativecommons.org/ns#"
   xmlns:rdf="http://www.w3.org/1999/02/22-rdf-syntax-ns#"
   xmlns:svg="http://www.w3.org/2000/svg"
   xmlns="http://www.w3.org/2000/svg"
   xmlns:sodipodi="http://sodipodi.sourceforge.net/DTD/sodipodi-0.dtd"
   xmlns:inkscape="http://www.inkscape.org/namespaces/inkscape"
   width="70"
   height="70"
   id="svg5443"
   version="1.1"
   inkscape:version="0.48.4 r9939"
   sodipodi:docname="New document 11">
  <defs
     id="defs5445" />
  <sodipodi:namedview
     id="base"
     pagecolor="#ffffff"
     bordercolor="#666666"
     borderopacity="1.0"
     inkscape:pageopacity="0.0"
     inkscape:pageshadow="2"
     inkscape:zoom="0.35"
     inkscape:cx="35"
     inkscape:cy="34.999997"
     inkscape:document-units="px"
     inkscape:current-layer="layer1"
     showgrid="false"
     fit-margin-top="0"
     fit-margin-left="0"
     fit-margin-right="0"
     fit-margin-bottom="0"
     inkscape:window-width="472"
     inkscape:window-height="383"
     inkscape:window-x="55"
     inkscape:window-y="24"
     inkscape:window-maximized="0" />
  <metadata
     id="metadata5448">
    <rdf:RDF>
      <cc:Work
         rdf:about="">
        <dc:format>image/svg+xml</dc:format>
        <dc:type
           rdf:resource="http://purl.org/dc/dcmitype/StillImage" />
        <dc:title></dc:title>
      </cc:Work>
    </rdf:RDF>
  </metadata>
  <g
     inkscape:label="Layer 1"
     inkscape:groupmode="layer"
     id="layer1"
     transform="translate(-340,-497.36218)">
    <path
       style="fill:#acc0c1;stroke:none"
       inkscape:connector-curvature="0"
       d="m 340,507.01218 0,-0.25 0,-9.4 70,0 0,60.85 0,0.65 0,8.5 -70,0 0,-60.35 m 40.05,7.35 q -3.05,0 -3.05,3.05 l 0,3.85 q 0,3.1 3.05,3.1 l 3.85,0 q 3.1,0 3.1,-3.1 l 0,-3.85 q 0,-3.05 -3.1,-3.05 l -3.85,0 m -22.15,4 -5.85,0 q -4.05,0 -4.05,4.05 l 0,5.9 q 0,4.05 4.05,4.05 l 5.85,0 q 4.1,0 4.1,-4.05 l 0,-5.9 q 0,-4.05 -4.1,-4.05 m -7.85,16 q -3.05,0 -3.05,3.05 l 0,3.85 q 0,3.1 3.05,3.1 l 3.85,0 q 3.1,0 3.1,-3.1 l 0,-3.85 q 0,-3.05 -3.1,-3.05 l -3.85,0 m 30.6,25.95 q 3.35,0 3.35,-3.4 l 0,-6.2 q 0,-3.4 -3.35,-3.4 l -6.25,0 q -3.4,0 -3.4,3.4 l 0,6.2 q 0,3.4 3.4,3.4 l 6.25,0 m 9.25,-20.95 q -3.9,0 -3.9,3.9 l 0,7.2 q 0,3.9 3.9,3.9 l 7.15,0 q 3.95,0 3.95,-3.9 l 0,-7.2 q 0,-3.9 -3.95,-3.9 l -7.15,0"
       id="path2115" />
    <path
       style="fill:#a1b1b1;stroke:none"
       inkscape:connector-curvature="0"
       d="m 389.9,539.36218 7.15,0 q 3.95,0 3.95,3.9 l 0,7.2 q 0,3.9 -3.95,3.9 l -7.15,0 q -3.9,0 -3.9,-3.9 l 0,-7.2 q 0,-3.9 3.9,-3.9 m -9.85,-25 3.85,0 q 3.1,0 3.1,3.05 l 0,3.85 q 0,3.1 -3.1,3.1 l -3.85,0 q -3.05,0 -3.05,-3.1 l 0,-3.85 q 0,-3.05 3.05,-3.05 m -30,20 3.85,0 q 3.1,0 3.1,3.05 l 0,3.85 q 0,3.1 -3.1,3.1 l -3.85,0 q -3.05,0 -3.05,-3.1 l 0,-3.85 q 0,-3.05 3.05,-3.05"
       id="path2117" />
    <path
       style="fill:#bbcbcc;stroke:none"
       inkscape:connector-curvature="0"
       d="m 357.9,518.36218 q 4.1,0 4.1,4.05 l 0,5.9 q 0,4.05 -4.1,4.05 l -5.85,0 q -4.05,0 -4.05,-4.05 l 0,-5.9 q 0,-4.05 4.05,-4.05 l 5.85,0 m 22.75,41.95 -6.25,0 q -3.4,0 -3.4,-3.4 l 0,-6.2 q 0,-3.4 3.4,-3.4 l 6.25,0 q 3.35,0 3.35,3.4 l 0,6.2 q 0,3.4 -3.35,3.4"
       id="path2119" />
  </g>
</svg>
